<svg width="253" height="272" viewBox="0 0 253 272" fill="none" xmlns="http://www.w3.org/2000/svg">
<path d="M127.165 271.09C123.945 271.09 120.547 270.991 117.066 270.793C116.892 270.783 116.721 270.739 116.563 270.663C116.405 270.587 116.264 270.48 116.148 270.35C116.031 270.219 115.942 270.067 115.884 269.902C115.826 269.737 115.802 269.562 115.811 269.388C115.821 269.213 115.865 269.042 115.941 268.884C116.017 268.727 116.124 268.586 116.254 268.469C116.385 268.353 116.537 268.263 116.702 268.205C116.867 268.148 117.042 268.123 117.217 268.133C120.647 268.326 123.994 268.423 127.165 268.423C127.502 268.423 127.826 268.551 128.073 268.781C128.319 269.011 128.469 269.325 128.493 269.662C128.517 269.998 128.412 270.33 128.2 270.592C127.988 270.855 127.685 271.027 127.351 271.074C127.29 271.082 127.227 271.087 127.164 271.087M107.02 269.971C103.671 269.612 100.31 269.166 97.0309 268.642C96.8582 268.614 96.6926 268.553 96.5435 268.462C96.3944 268.37 96.2649 268.25 96.1622 268.108C96.0596 267.967 95.9858 267.806 95.9452 267.636C95.9045 267.466 95.8978 267.289 95.9254 267.117C95.9529 266.944 96.0143 266.778 96.1059 266.629C96.1974 266.48 96.3175 266.351 96.4591 266.248C96.6008 266.145 96.7613 266.071 96.9314 266.031C97.1016 265.99 97.2781 265.983 97.4509 266.011C100.684 266.527 104 266.968 107.304 267.322C107.627 267.357 107.927 267.508 108.146 267.748C108.366 267.988 108.49 268.3 108.495 268.625C108.501 268.95 108.387 269.265 108.176 269.512C107.965 269.759 107.67 269.921 107.349 269.966C107.24 269.981 107.129 269.983 107.02 269.971ZM87.1221 266.785C83.7997 266.066 80.5063 265.252 77.3327 264.363C77.1629 264.317 77.0039 264.238 76.8649 264.13C76.7259 264.022 76.6096 263.888 76.5228 263.735C76.4359 263.582 76.3802 263.413 76.3589 263.239C76.3376 263.064 76.351 262.887 76.3985 262.718C76.446 262.548 76.5265 262.39 76.6355 262.252C76.7445 262.114 76.8797 261.999 77.0334 261.913C77.1871 261.828 77.3562 261.774 77.531 261.754C77.7058 261.734 77.8828 261.749 78.0517 261.798C81.1737 262.672 84.4139 263.474 87.685 264.18C87.8572 264.216 88.0206 264.286 88.1658 264.385C88.311 264.484 88.4351 264.611 88.531 264.758C88.6269 264.906 88.6926 265.071 88.7244 265.244C88.7562 265.417 88.7534 265.594 88.7163 265.766C88.6791 265.938 88.6082 266.101 88.5078 266.245C88.4074 266.39 88.2794 266.513 88.1312 266.607C87.9829 266.702 87.8174 266.766 87.6442 266.797C87.471 266.827 87.2936 266.824 87.1221 266.785ZM67.7122 261.324C64.4892 260.185 61.3297 258.936 58.3214 257.614C58.0041 257.468 57.7569 257.203 57.6329 256.877C57.5089 256.55 57.5181 256.188 57.6585 255.868C57.799 255.549 58.0594 255.297 58.3837 255.167C58.708 255.037 59.0703 255.04 59.3924 255.175C62.3395 256.472 65.4372 257.697 68.5984 258.813C68.7633 258.872 68.9151 258.962 69.0452 259.079C69.1753 259.196 69.2811 259.337 69.3565 259.495C69.4319 259.653 69.4754 259.824 69.4847 259.999C69.4939 260.174 69.4687 260.349 69.4104 260.513C69.3521 260.678 69.2618 260.83 69.1448 260.96C69.0278 261.09 68.8864 261.196 68.7285 261.272C68.5707 261.347 68.3995 261.391 68.2248 261.4C68.0501 261.409 67.8753 261.384 67.7103 261.325M49.2514 253.168C46.2476 251.533 43.3368 249.769 40.6028 247.927C40.3132 247.728 40.1139 247.423 40.0482 247.078C39.9825 246.733 40.0557 246.376 40.2519 246.085C40.448 245.793 40.7513 245.591 41.0957 245.522C41.4401 245.454 41.7977 245.524 42.0907 245.717C44.7567 247.514 47.5947 249.233 50.5253 250.829C50.6826 250.911 50.8221 251.023 50.9356 251.159C51.0491 251.295 51.1342 251.452 51.1861 251.622C51.238 251.791 51.2555 251.969 51.2376 252.146C51.2198 252.322 51.1669 252.493 51.0822 252.649C50.9974 252.804 50.8824 252.942 50.744 253.052C50.6056 253.163 50.4464 253.245 50.2759 253.293C50.1054 253.341 49.927 253.355 49.7511 253.334C49.5751 253.312 49.4053 253.256 49.2514 253.168ZM32.5128 241.846C29.9226 239.678 27.4572 237.364 25.1285 234.917C24.8852 234.66 24.7537 234.318 24.7628 233.965C24.772 233.612 24.9211 233.276 25.1774 233.033C25.4336 232.79 25.776 232.658 26.1293 232.667C26.4825 232.677 26.8177 232.826 27.061 233.082C29.32 235.456 31.7116 237.701 34.2243 239.804C34.4951 240.031 34.6646 240.357 34.6956 240.709C34.7266 241.061 34.6165 241.41 34.3896 241.681C34.1626 241.952 33.8374 242.121 33.4854 242.152C33.1335 242.184 32.7836 242.073 32.5128 241.846ZM18.6031 227.172C16.5867 224.461 14.7371 221.63 13.0645 218.695C12.8906 218.388 12.8455 218.024 12.9393 217.684C13.033 217.344 13.2578 217.055 13.5644 216.881C13.871 216.706 14.2343 216.66 14.5746 216.753C14.9149 216.846 15.2044 217.071 15.3796 217.377C16.9987 220.218 18.7887 222.958 20.7396 225.582C20.8494 225.722 20.93 225.882 20.9767 226.053C21.0235 226.225 21.0354 226.404 21.0119 226.58C20.9883 226.757 20.9297 226.926 20.8395 227.079C20.7493 227.233 20.6294 227.366 20.4868 227.472C20.3442 227.579 20.1817 227.655 20.0091 227.697C19.8364 227.74 19.657 227.747 19.4815 227.719C19.3059 227.691 19.1378 227.628 18.9869 227.534C18.8361 227.44 18.7056 227.317 18.6031 227.172ZM8.59142 209.616C7.28555 206.508 6.15411 203.329 5.20237 200.095C5.14994 199.926 5.13157 199.749 5.14831 199.573C5.16506 199.397 5.21659 199.227 5.29991 199.071C5.38324 198.915 5.49669 198.778 5.63367 198.666C5.77065 198.555 5.92842 198.472 6.09781 198.422C6.26719 198.372 6.44481 198.356 6.62034 198.376C6.79586 198.395 6.96578 198.449 7.12022 198.535C7.27466 198.62 7.41053 198.736 7.51992 198.874C7.62932 199.013 7.71006 199.172 7.75745 199.342C8.68159 202.481 9.77971 205.567 11.0467 208.584C11.1172 208.746 11.1549 208.92 11.1576 209.096C11.1603 209.273 11.128 209.448 11.0625 209.611C10.997 209.775 10.8997 209.924 10.7761 210.05C10.6525 210.176 10.5052 210.276 10.3427 210.344C10.1802 210.413 10.0057 210.448 9.82932 210.449C9.65298 210.449 9.4783 210.415 9.31541 210.347C9.15252 210.28 9.00467 210.18 8.88044 210.055C8.75621 209.93 8.65806 209.781 8.5917 209.618M2.73246 190.31C2.18173 187.706 1.72419 185.111 1.3711 182.599C1.26478 181.842 1.16708 181.083 1.07896 180.341C1.05542 180.165 1.06697 179.987 1.11294 179.817C1.15891 179.646 1.23838 179.486 1.34671 179.347C1.45504 179.207 1.59008 179.09 1.74396 179.003C1.89783 178.917 2.06747 178.861 2.24298 178.84C2.41849 178.82 2.59636 178.834 2.76625 178.883C2.93613 178.932 3.09462 179.014 3.23248 179.124C3.37035 179.235 3.48483 179.372 3.56926 179.527C3.65369 179.682 3.70638 179.853 3.72426 180.028C3.80959 180.751 3.90563 181.491 4.00932 182.229C4.35405 184.682 4.80212 187.216 5.33926 189.759C5.41195 190.105 5.34461 190.465 5.15201 190.761C4.95941 191.057 4.65728 191.264 4.31193 191.338C4.28123 191.342 4.25053 191.346 4.21983 191.351C3.88586 191.397 3.54669 191.315 3.27076 191.121C2.99482 190.928 2.80266 190.636 2.73303 190.306M1.76741 171.558C1.59206 171.56 1.41816 171.527 1.25567 171.461C1.09318 171.395 0.945289 171.297 0.820476 171.174C0.695663 171.051 0.59638 170.904 0.52831 170.743C0.46024 170.581 0.424726 170.408 0.423799 170.232C0.389575 166.845 0.578913 163.459 0.990583 160.096C1.03438 159.745 1.21565 159.427 1.49452 159.21C1.77338 158.993 2.127 158.895 2.47757 158.939C2.82815 158.983 3.14697 159.164 3.36389 159.443C3.58081 159.722 3.67808 160.076 3.63428 160.426C3.2382 163.672 3.05659 166.94 3.09064 170.21C3.09393 170.535 2.97863 170.849 2.76639 171.095C2.55415 171.34 2.25958 171.5 1.93799 171.543C1.87974 171.552 1.82101 171.556 1.76218 171.557M3.92998 151.774C3.59092 151.675 3.30508 151.445 3.13526 151.135C2.96543 150.826 2.92551 150.461 3.02425 150.122C3.97457 146.842 5.23129 143.66 6.77781 140.616C6.93876 140.301 7.21806 140.064 7.55429 139.955C7.89051 139.846 8.25611 139.876 8.57066 140.037C8.8852 140.198 9.12293 140.477 9.23154 140.813C9.34016 141.149 9.31075 141.515 9.14981 141.83C7.67963 144.724 6.48509 147.75 5.582 150.868C5.53314 151.036 5.45162 151.193 5.34212 151.329C5.23261 151.466 5.09726 151.579 4.94382 151.664C4.79037 151.748 4.62185 151.801 4.44788 151.82C4.27391 151.839 4.09792 151.823 3.92998 151.774ZM47.4765 144.206C44.0127 144.458 40.5306 144.188 37.1473 143.403C36.8031 143.324 36.5046 143.111 36.3174 142.811C36.1302 142.512 36.0697 142.15 36.1492 141.806C36.2288 141.462 36.4417 141.163 36.7414 140.976C37.041 140.789 37.4027 140.728 37.7469 140.808C40.8659 141.532 44.0763 141.782 47.2698 141.55C47.6138 141.525 47.9541 141.634 48.2191 141.855C48.4841 142.075 48.6531 142.39 48.6907 142.733C48.7283 143.076 48.6315 143.42 48.4206 143.693C48.2097 143.965 47.9012 144.146 47.5599 144.196L47.4778 144.208M55.7576 140.846C55.6701 140.695 55.6133 140.528 55.5905 140.354C55.5677 140.181 55.5792 140.005 55.6245 139.836C55.6698 139.667 55.7479 139.508 55.8543 139.37C55.9608 139.231 56.0936 139.114 56.2451 139.027C58.3533 137.811 60.8405 135.655 60.7134 132.271C60.7 131.918 60.8275 131.574 61.0678 131.315C61.308 131.056 61.6414 130.903 61.9945 130.89C62.3477 130.876 62.6916 131.004 62.9507 131.244C63.2099 131.484 63.3629 131.818 63.3763 132.171C63.5137 135.843 61.4546 139.098 57.5773 141.335C57.2713 141.511 56.9078 141.559 56.5668 141.467C56.2257 141.376 55.934 141.152 55.7576 140.846ZM27.521 139.598C24.5157 137.843 21.8163 135.61 19.5292 132.987C19.4143 132.855 19.3265 132.702 19.2709 132.536C19.2152 132.37 19.1928 132.195 19.2048 132.02C19.2168 131.846 19.2631 131.676 19.3411 131.519C19.419 131.362 19.527 131.223 19.6589 131.108C19.7908 130.993 19.944 130.905 20.1099 130.849C20.2757 130.794 20.4509 130.771 20.6254 130.783C20.7999 130.795 20.9704 130.842 21.127 130.92C21.2836 130.997 21.4233 131.105 21.5382 131.237C23.6359 133.643 26.1113 135.691 28.8674 137.3C29.0199 137.388 29.1537 137.505 29.2609 137.644C29.368 137.784 29.4465 137.943 29.4917 138.113C29.537 138.283 29.5481 138.461 29.5244 138.635C29.5008 138.809 29.4428 138.977 29.3539 139.129C29.265 139.281 29.1469 139.413 29.0065 139.519C28.866 139.625 28.706 139.702 28.5356 139.746C28.3652 139.79 28.1878 139.799 28.0137 139.774C27.8396 139.749 27.672 139.688 27.521 139.598ZM12.57 133.903C12.4347 133.793 12.3225 133.656 12.24 133.502C12.1575 133.348 12.1062 133.179 12.089 133.004C12.0719 132.83 12.0892 132.655 12.1401 132.487C12.1909 132.32 12.2742 132.164 12.3853 132.029C14.5626 129.37 17.0441 126.975 19.7792 124.893C19.9186 124.788 20.0774 124.71 20.2466 124.666C20.4159 124.622 20.5922 124.611 20.7655 124.635C20.9389 124.658 21.1058 124.716 21.2569 124.804C21.408 124.893 21.5402 125.01 21.6459 125.149C21.7517 125.289 21.829 125.447 21.8734 125.617C21.9178 125.786 21.9285 125.962 21.9047 126.135C21.881 126.309 21.8233 126.476 21.7351 126.627C21.6468 126.778 21.5296 126.91 21.3903 127.016C18.8208 128.971 16.4896 131.22 14.4445 133.719C14.2203 133.992 13.8968 134.164 13.5452 134.199C13.1937 134.233 12.843 134.128 12.57 133.903ZM56.5901 124.553C54.2851 122.449 51.4759 120.976 48.4345 120.276C48.0917 120.191 47.797 119.972 47.6152 119.669C47.4334 119.366 47.3795 119.003 47.4652 118.661C47.5509 118.318 47.7693 118.023 48.0724 117.841C48.3754 117.66 48.7382 117.606 49.081 117.691C52.5641 118.5 55.7794 120.194 58.4154 122.61C58.673 122.852 58.824 123.186 58.8352 123.539C58.8464 123.892 58.7169 124.236 58.4751 124.493C58.2333 124.751 57.899 124.902 57.5459 124.913C57.1928 124.924 56.8497 124.795 56.592 124.553M14.0434 124.204C12.7027 121.031 11.7679 117.702 11.2612 114.295C11.2344 114.122 11.2419 113.945 11.2833 113.775C11.3246 113.605 11.3991 113.445 11.5024 113.304C11.6057 113.163 11.7357 113.043 11.8852 112.953C12.0347 112.862 12.2006 112.801 12.3734 112.774L12.3913 112.772C12.7379 112.723 13.0897 112.813 13.3707 113.021C13.6518 113.23 13.8394 113.541 13.893 113.887C14.3673 117.07 15.2412 120.182 16.4941 123.147C16.5666 123.308 16.6062 123.482 16.6107 123.659C16.6152 123.835 16.5845 124.011 16.5203 124.176C16.4561 124.341 16.3598 124.491 16.2369 124.618C16.1141 124.745 15.9671 124.847 15.8047 124.917C15.6422 124.986 15.4675 125.023 15.2907 125.025C15.1139 125.026 14.9386 124.992 14.7749 124.925C14.6113 124.859 14.4626 124.76 14.3375 124.635C14.2125 124.51 14.1136 124.361 14.0466 124.198M27.9849 121.479C27.8487 121.153 27.8474 120.787 27.9814 120.46C28.1154 120.133 28.3736 119.873 28.6993 119.737C31.8877 118.393 35.2499 117.507 38.6863 117.105C39.0276 117.083 39.3645 117.193 39.6271 117.412C39.8898 117.631 40.0581 117.943 40.0971 118.282C40.1362 118.622 40.043 118.964 39.8369 119.237C39.6309 119.51 39.3277 119.693 38.9901 119.749C35.8026 120.124 32.6843 120.948 29.7278 122.198C29.6224 122.242 29.5116 122.273 29.3983 122.288C29.1068 122.329 28.81 122.272 28.5543 122.127C28.2985 121.981 28.0982 121.755 27.9845 121.483M11.9803 105.465C11.6274 105.453 11.2938 105.301 11.0528 105.043C10.8119 104.784 10.6832 104.441 10.6953 104.088C10.8239 100.699 11.1827 97.3228 11.7693 93.9824C11.8293 93.6342 12.0253 93.3242 12.3139 93.1205C12.6026 92.9167 12.9604 92.836 13.3086 92.8961C13.6567 92.9562 13.9668 93.1521 14.1705 93.4408C14.3742 93.7294 14.4549 94.0872 14.3949 94.4354C13.8286 97.6562 13.4818 100.912 13.3569 104.18C13.3511 104.355 13.3109 104.526 13.2385 104.686C13.1662 104.845 13.0631 104.988 12.9352 105.108C12.8074 105.227 12.6572 105.32 12.4933 105.381C12.3295 105.443 12.1552 105.471 11.9803 105.465ZM14.9429 85.7607C14.7744 85.7136 14.6169 85.6338 14.4793 85.5259C14.3416 85.4179 14.2266 85.2839 14.1408 85.1315C14.0549 84.9791 13.9999 84.8113 13.979 84.6376C13.958 84.464 13.9714 84.2879 14.0185 84.1194C14.8838 81.0218 15.9262 77.7903 17.1302 74.5159C17.1903 74.3515 17.2822 74.2005 17.4007 74.0716C17.5191 73.9427 17.6618 73.8385 17.8205 73.7647C17.9793 73.691 18.151 73.6492 18.3259 73.6418C18.5008 73.6344 18.6754 73.6616 18.8398 73.7217C19.0042 73.7818 19.1552 73.8737 19.2841 73.9922C19.4129 74.1106 19.5172 74.2533 19.591 74.412C19.6647 74.5708 19.7065 74.7425 19.7139 74.9174C19.7212 75.0923 19.6941 75.2669 19.634 75.4313C18.4585 78.6432 17.4337 81.8056 16.5866 84.8319C16.5398 85.0005 16.4601 85.1582 16.3522 85.296C16.2443 85.4338 16.1103 85.5489 15.9578 85.6348C15.8054 85.7206 15.6374 85.7756 15.4637 85.7964C15.2899 85.8173 15.1138 85.8037 14.9453 85.7563M21.7055 66.9909C21.3905 66.8311 21.1519 66.5529 21.0419 66.2174C20.9318 65.8818 20.9595 65.5163 21.1187 65.2011C22.649 62.1804 24.3722 59.2614 26.2776 56.4621C26.3754 56.316 26.5012 56.1907 26.6476 56.0935C26.794 55.9962 26.9583 55.9289 27.1309 55.8954C27.3034 55.862 27.4809 55.863 27.6531 55.8984C27.8253 55.9339 27.9888 56.0031 28.1341 56.102C28.2794 56.2009 28.4037 56.3276 28.4998 56.4748C28.5959 56.622 28.6619 56.7868 28.6941 56.9596C28.7262 57.1325 28.7238 57.3099 28.687 57.4818C28.6502 57.6537 28.5798 57.8167 28.4797 57.9612C26.6383 60.665 24.9733 63.4848 23.4951 66.4031C23.3355 66.7182 23.0574 66.957 22.7219 67.0672C22.3863 67.1774 22.0208 67.15 21.7055 66.9909ZM32.6137 50.3357C32.4822 50.2202 32.3749 50.08 32.2977 49.9231C32.2205 49.7661 32.1749 49.5955 32.1637 49.4209C32.1525 49.2464 32.1758 49.0713 32.2323 48.9058C32.2888 48.7403 32.3773 48.5875 32.4929 48.4562C34.727 45.9189 37.102 43.5093 39.6067 41.2389C39.7349 41.1148 39.8867 41.0177 40.0531 40.9534C40.2195 40.8891 40.3972 40.8589 40.5755 40.8645C40.7538 40.8702 40.9292 40.9116 41.0912 40.9864C41.2532 41.0611 41.3985 41.1677 41.5186 41.2996C41.6386 41.4316 41.7309 41.5864 41.79 41.7547C41.8491 41.9231 41.8738 42.1016 41.8626 42.2796C41.8513 42.4577 41.8045 42.6317 41.7247 42.7913C41.6449 42.9509 41.5339 43.0928 41.3983 43.2087C38.9675 45.4107 36.6625 47.7477 34.4943 50.2087C34.261 50.4739 33.932 50.6356 33.5795 50.6582C33.2271 50.6809 32.8801 50.5626 32.6148 50.3294M251.171 9.47669C248.428 8.82318 245.159 8.18996 241.455 7.59253C241.107 7.53644 240.794 7.34407 240.587 7.05775C240.38 6.77143 240.296 6.4146 240.352 6.06578C240.408 5.71696 240.6 5.40471 240.886 5.19772C241.173 4.99073 241.53 4.90596 241.878 4.96206C245.646 5.56968 248.98 6.21591 251.788 6.88456C251.959 6.92509 252.119 6.99875 252.261 7.10133C252.403 7.20391 252.523 7.33339 252.614 7.4824C252.706 7.63141 252.768 7.79702 252.795 7.96978C252.823 8.14253 252.816 8.31905 252.776 8.48925C252.735 8.65945 252.662 8.82001 252.559 8.96174C252.457 9.10348 252.327 9.22363 252.178 9.31532C252.029 9.40701 251.863 9.46846 251.691 9.49615C251.518 9.52383 251.341 9.51722 251.171 9.47669ZM47.1648 36.6948C47.0609 36.5541 46.9857 36.3943 46.9436 36.2246C46.9014 36.0549 46.8931 35.8785 46.9192 35.7055C46.9453 35.5326 47.0051 35.3665 47.0954 35.2167C47.1857 35.0669 47.3046 34.9364 47.4454 34.8326C50.082 32.8847 52.9038 30.9906 55.8335 29.2024C56.135 29.0184 56.4973 28.9616 56.8407 29.0447C57.1841 29.1278 57.4804 29.3439 57.6644 29.6454C57.8485 29.947 57.9052 30.3093 57.8221 30.6526C57.7391 30.996 57.523 31.2923 57.2214 31.4764C54.3598 33.2237 51.6025 35.0744 49.0281 36.9762C48.8875 37.0802 48.7277 37.1555 48.558 37.1978C48.3882 37.24 48.2118 37.2483 48.0388 37.2222C47.8659 37.1962 47.6997 37.1362 47.5499 37.0459C47.4002 36.9555 47.2697 36.8365 47.166 36.6956M231.61 6.22342C228.441 5.84372 225.111 5.49887 221.709 5.19741C221.356 5.1666 221.031 4.99703 220.803 4.72599C220.576 4.45495 220.465 4.10465 220.496 3.75215C220.527 3.39965 220.696 3.07383 220.967 2.84636C221.238 2.61888 221.589 2.5084 221.941 2.53921C225.37 2.84398 228.728 3.192 231.923 3.57403C232.245 3.61217 232.541 3.76603 232.758 4.00686C232.974 4.24769 233.095 4.55902 233.098 4.88266C233.102 5.2063 232.987 5.52011 232.776 5.76547C232.565 6.01082 232.272 6.17092 231.951 6.21585C231.837 6.23195 231.721 6.2333 231.607 6.21987M64.0618 26.0789C63.9822 25.923 63.9342 25.753 63.9203 25.5786C63.9065 25.4042 63.9271 25.2287 63.9811 25.0623C64.0351 24.8958 64.1213 24.7416 64.2349 24.6085C64.3485 24.4754 64.4871 24.366 64.643 24.2865C67.5537 22.802 70.6247 21.3656 73.7707 20.0176C73.932 19.9452 74.1061 19.9055 74.2828 19.901C74.4596 19.8966 74.6354 19.9273 74.8002 19.9915C74.9649 20.0556 75.1153 20.152 75.2424 20.2748C75.3695 20.3977 75.4709 20.5447 75.5407 20.7071C75.6104 20.8696 75.6471 21.0443 75.6487 21.2211C75.6502 21.3979 75.6165 21.5732 75.5496 21.7369C75.4827 21.9005 75.3838 22.0492 75.2588 22.1742C75.1338 22.2993 74.9852 22.3982 74.8216 22.4652C71.7291 23.7915 68.7121 25.2021 65.8541 26.6601C65.6983 26.7398 65.5283 26.788 65.3539 26.8019C65.1794 26.8158 65.0039 26.7952 64.8374 26.7412C64.671 26.6872 64.5168 26.6009 64.3837 26.4873C64.2506 26.3736 64.1412 26.2348 64.0618 26.0789ZM211.774 4.45077C208.502 4.24719 205.158 4.07993 201.825 3.95456C201.649 3.95011 201.476 3.91071 201.315 3.83864C201.154 3.76657 201.009 3.66328 200.888 3.53473C200.767 3.40619 200.673 3.25496 200.611 3.08982C200.55 2.92468 200.521 2.74892 200.528 2.57272C200.535 2.39652 200.576 2.2234 200.65 2.06339C200.724 1.90338 200.829 1.75967 200.959 1.6406C201.09 1.52152 201.242 1.42945 201.408 1.36972C201.574 1.31 201.75 1.2838 201.926 1.29266C205.276 1.41963 208.645 1.58737 211.94 1.79185C212.27 1.81111 212.581 1.9526 212.813 2.18877C213.045 2.42494 213.18 2.73889 213.193 3.06948C213.206 3.40007 213.096 3.72365 212.883 3.97721C212.671 4.23078 212.371 4.39617 212.044 4.4412C211.954 4.45322 211.864 4.45643 211.774 4.45077ZM191.867 3.69605C188.554 3.64964 185.202 3.64104 181.904 3.67131C181.554 3.66919 181.219 3.52956 180.972 3.28258C180.724 3.03559 180.583 2.70108 180.58 2.3513C180.577 2.00152 180.712 1.66454 180.955 1.41314C181.198 1.16175 181.53 1.01612 181.88 1.00772C185.198 0.976645 188.571 0.985291 191.905 1.03274C192.08 1.03521 192.253 1.07211 192.414 1.14133C192.574 1.21056 192.72 1.31075 192.842 1.43619C192.964 1.56163 193.06 1.70986 193.124 1.87242C193.189 2.03498 193.221 2.20868 193.219 2.38362C193.216 2.55855 193.179 2.73128 193.11 2.89195C193.041 3.05262 192.941 3.19808 192.815 3.32003C192.69 3.44198 192.541 3.53803 192.379 3.6027C192.216 3.66736 192.043 3.69937 191.868 3.6969M82.3376 18.031C82.2781 17.8666 82.2516 17.692 82.2596 17.5174C82.2675 17.3427 82.3099 17.1713 82.3841 17.0129C82.4584 16.8546 82.5631 16.7125 82.6923 16.5946C82.8215 16.4768 82.9727 16.3856 83.1371 16.3262C86.2123 15.2144 89.4221 14.1473 92.6813 13.152C93.0117 13.0711 93.3606 13.1197 93.6564 13.2879C93.9521 13.4561 94.1723 13.731 94.2718 14.0564C94.3713 14.3817 94.3424 14.7328 94.1913 15.0376C94.0401 15.3424 93.778 15.5778 93.4588 15.6955C90.2421 16.6768 87.074 17.7309 84.0429 18.8264C83.8784 18.8862 83.7038 18.9129 83.5289 18.905C83.3541 18.8971 83.1826 18.8548 83.0241 18.7804C82.8657 18.706 82.7235 18.6011 82.6058 18.4716C82.488 18.3421 82.397 18.1907 82.3379 18.0259M171.941 3.87694C168.616 3.98776 165.268 4.1401 161.991 4.33009C161.64 4.34791 161.296 4.22613 161.034 3.99131C160.772 3.75649 160.614 3.42769 160.594 3.07662C160.573 2.72555 160.693 2.3807 160.926 2.1173C161.159 1.8539 161.486 1.69332 161.837 1.67059C165.137 1.47853 168.506 1.32609 171.853 1.21419C172.028 1.20839 172.202 1.23707 172.366 1.29861C172.53 1.36015 172.68 1.45334 172.808 1.57286C172.935 1.69238 173.038 1.83588 173.111 1.99518C173.183 2.15448 173.223 2.32645 173.229 2.50128C173.235 2.67611 173.206 2.85037 173.144 3.01412C173.083 3.17786 172.99 3.32788 172.87 3.45561C172.751 3.58333 172.607 3.68627 172.448 3.75854C172.289 3.83081 172.116 3.87113 171.941 3.87694ZM101.394 12.0568C101.35 11.8873 101.34 11.711 101.365 11.5377C101.39 11.3645 101.448 11.1979 101.538 11.0473C101.627 10.8968 101.745 10.7652 101.885 10.6602C102.025 10.5553 102.184 10.4789 102.353 10.4355C105.522 9.62157 108.812 8.8491 112.129 8.13863C112.301 8.09951 112.479 8.09491 112.653 8.12512C112.826 8.15533 112.992 8.21974 113.141 8.31461C113.29 8.40948 113.418 8.53292 113.518 8.67777C113.619 8.82263 113.69 8.98601 113.727 9.15844C113.764 9.33088 113.766 9.50893 113.734 9.68227C113.701 9.85561 113.635 10.0208 113.538 10.1682C113.441 10.3157 113.316 10.4424 113.17 10.5411C113.024 10.6399 112.86 10.7086 112.687 10.7433C109.402 11.4474 106.146 12.2119 103.008 13.0124C102.96 13.0248 102.911 13.0348 102.861 13.0422C102.537 13.0871 102.207 13.0112 101.936 12.8289C101.664 12.6466 101.469 12.3707 101.387 12.0537M152.051 5.03428C148.725 5.31495 145.391 5.64212 142.144 6.00754C141.793 6.0471 141.441 5.94559 141.165 5.72533C140.888 5.50508 140.711 5.18413 140.672 4.83308C140.632 4.48204 140.733 4.12965 140.954 3.85345C141.174 3.57725 141.495 3.39986 141.846 3.3603C145.118 2.99239 148.475 2.66188 151.827 2.37971C152.17 2.35444 152.51 2.46314 152.775 2.683C153.04 2.90287 153.209 3.21681 153.248 3.55898C153.287 3.90116 153.191 4.24496 152.982 4.51828C152.772 4.7916 152.465 4.9732 152.125 5.02498L152.05 5.03541M120.902 7.75691C120.873 7.58396 120.877 7.40687 120.917 7.23584C120.956 7.0648 121.028 6.90319 121.13 6.7603C121.232 6.61742 121.361 6.49608 121.51 6.40326C121.659 6.31044 121.825 6.24798 121.998 6.21946C125.227 5.64852 128.561 5.11629 131.908 4.63683C132.253 4.59797 132.599 4.69517 132.873 4.90775C133.147 5.12032 133.328 5.4315 133.376 5.77507C133.424 6.11864 133.337 6.4675 133.132 6.74742C132.927 7.02734 132.621 7.21623 132.279 7.27391C128.96 7.74933 125.654 8.27767 122.452 8.84273L122.405 8.84942C122.063 8.89712 121.716 8.81045 121.437 8.60763C121.158 8.40482 120.969 8.10169 120.909 7.76202" fill="white"/>
</svg>
